<?xml version="1.0" encoding="iso-8859-1"?>
<!-- Generator: Adobe Illustrator 16.0.0, SVG Export Plug-In . SVG Version: 6.00 Build 0)  -->
<!DOCTYPE svg PUBLIC "-//W3C//DTD SVG 1.1//EN" "http://www.w3.org/Graphics/SVG/1.1/DTD/svg11.dtd">
<svg version="1.1" id="Capa_1" xmlns="http://www.w3.org/2000/svg" xmlns:xlink="http://www.w3.org/1999/xlink" x="0px" y="0px"
	  viewBox="0 0 408.432 408.432" style="enable-background:new 0 0 408.432 408.432;"
	 xml:space="preserve">
<g>
	<g>
		<g id="Layer_5_78_">
			<g>
				<path d="M140.943,297.725c23.062-42.787,107.789-216.015,143.84-287.958c3.233-6.456,4.728-8.387,3.862-9.313
					c-4.812-5.165-55.854,34.55-106.701,79.708c-2.748,2.44-3.91,6.241-3.476,10.144c1.595,14.323,6.129,35.774,4.892,36.106
					c-0.905,0.243-9.933-16.47-13.798-23.962c-1.235-2.396-4.37-4.068-6.896-0.91c-8.653,10.819-15.579,20.628-20.03,26.592
					c-2.008,2.69-2.276,5.564-1.83,7.345c4.815,19.182,10.92,51.919,9.164,52.392c-1.271,0.341-10.558-14.025-19.277-29.751
					c-0.916-1.652-4.166-4.027-6.707,1.372c-37.968,80.696-24.354,116.891,9.038,138.674
					C138.965,302.039,140.539,298.473,140.943,297.725z"/>
				<path d="M307.222,103.413c-0.785-49.281,0.996-95.553-3.212-96.783c-2.257-0.66-2.528,0.876-5.697,7.278
					c-15.936,32.202-61.031,123.927-61.031,123.927c-0.325,0.39-0.623,0.811-0.856,1.285L107.861,398.93
					c-1.613,3.258-0.278,7.205,2.98,8.816c0.938,0.465,1.933,0.686,2.914,0.686c2.423,0,4.756-1.346,5.902-3.666l45.42-91.787
					c36.854,7.719,77.923-0.344,110.635-77.398c15.01-35.355,20.104-49.197,31.512-100.364c0.561-2.501-0.775-5.208-5.148-5.094
					c-16.818,0.442-32.407,1.681-32.865,0.468c-0.593-1.57,13.422-6.918,32.952-18.647
					C303.342,111.23,307.309,108.888,307.222,103.413z"/>
			</g>
		</g>
	</g>
</g>
<g>
</g>
<g>
</g>
<g>
</g>
<g>
</g>
<g>
</g>
<g>
</g>
<g>
</g>
<g>
</g>
<g>
</g>
<g>
</g>
<g>
</g>
<g>
</g>
<g>
</g>
<g>
</g>
<g>
</g>
</svg>
